<?xml version="1.0" encoding="utf-8"?>
<!-- Generator: Adobe Illustrator 22.1.0, SVG Export Plug-In . SVG Version: 6.00 Build 0)  -->
<svg version="1.1" id="Layer_1" xmlns="http://www.w3.org/2000/svg" xmlns:xlink="http://www.w3.org/1999/xlink" x="0px" y="0px"
	 viewBox="0 0 256 256" style="enable-background:new 0 0 256 256;" xml:space="preserve">
<style type="text/css">
	.st0{fill:#D73735;}
	.st1{fill:#F85252;}
	.st2{fill:#EDAF85;}
	.st3{fill:#F7C09A;}
	.st4{fill:#D8D6D7;}
	.st5{fill:#FFFFFF;}
	.st6{fill:#1C868E;}
	.st7{fill:#40C4DF;}
	.st8{fill:#491352;}
	.st9{fill:#56C1B3;}
	.st10{fill:#7BEFE4;}
</style>
<g>
	<path class="st4" d="M245.36,165.647H10.64c-2.761,0-5-2.239-5-5V7.75c0-2.761,2.239-5,5-5h234.72c2.761,0,5,2.239,5,5v152.897
		C250.36,163.408,248.121,165.647,245.36,165.647z"/>
	<path class="st9" d="M237.36,20.75v126.9c0,2.76-2.24,5-5,5H23.64c-2.76,0-5-2.24-5-5V20.75c0-2.76,2.24-5,5-5h208.72
		C235.12,15.75,237.36,17.99,237.36,20.75z"/>
	<path class="st10" d="M237.36,20.75v126.9c0,2.761-2.239,5-5,5H45.39c-2.761,0-5-2.239-5-5V20.75c0-2.761,2.239-5,5-5h186.97
		C235.121,15.75,237.36,17.989,237.36,20.75z"/>
	<rect x="114.17" y="165.65" class="st4" width="27.66" height="65.93"/>
	<rect x="131.09" y="165.65" class="st5" width="10.74" height="65.93"/>
	<path class="st4" d="M191.67,236.58v11.67c0,2.76-2.24,5-5,5H69.33c-2.76,0-5-2.24-5-5v-11.67c0-2.76,2.24-5,5-5h117.34
		C189.43,231.58,191.67,233.82,191.67,236.58z"/>
	<path class="st5" d="M191.67,236.58v11.67c0,2.76-2.24,5-5,5H85.33c-2.76,0-5-2.24-5-5v-11.67c0-2.76,2.24-5,5-5h101.34
		C189.43,231.58,191.67,233.82,191.67,236.58z"/>
	<path class="st1" d="M158.5,141.73H36.237c-2.761,0-5-2.239-5-5V31.667c0-2.761,2.239-5,5-5H158.5c2.761,0,5,2.239,5,5V136.73
		C163.5,139.491,161.261,141.73,158.5,141.73z"/>
	<path class="st4" d="M163.5,45.5v91.23c0,2.76-2.24,5-5,5H36.24c-2.76,0-5-2.24-5-5V31.67c0-2.76,2.24-5,5-5h29.78l13.66,16.97
		c0.95,1.18,2.38,1.86,3.89,1.86H163.5z"/>
	<path class="st5" d="M163.5,45.5v91.23c0,2.76-2.24,5-5,5H40.39V26.67h25.63l13.66,16.97c0.95,1.18,2.38,1.86,3.89,1.86H163.5z"/>
	<path class="st1" d="M144.537,87.607H48.658c-2.761,0-5-2.239-5-5V65.673c0-2.761,2.239-5,5-5h95.879c2.761,0,5,2.239,5,5v16.934
		C149.537,85.368,147.298,87.607,144.537,87.607z"/>
	<path class="st7" d="M88.033,128H48.658c-2.761,0-5-2.239-5-5v-22.705c0-2.761,2.239-5,5-5h39.376c2.761,0,5,2.239,5,5V123
		C93.033,125.761,90.795,128,88.033,128z"/>
	<path class="st7" d="M144.537,107.516h-37.128c-2.761,0-5-2.239-5-5v-2.221c0-2.761,2.239-5,5-5h37.128c2.761,0,5,2.239,5,5v2.221
		C149.537,105.278,147.298,107.516,144.537,107.516z"/>
	<path class="st7" d="M144.537,128h-37.128c-2.761,0-5-2.239-5-5v-2.221c0-2.761,2.239-5,5-5h37.128c2.761,0,5,2.239,5,5V123
		C149.537,125.761,147.298,128,144.537,128z"/>
	<path class="st6" d="M250.36,128.49v114.76c0,5.53-4.48,10-10,10h-54.7c-5.52,0-10-4.47-10-10V128.49c0-5.53,4.48-10,10-10h54.7
		C245.88,118.49,250.36,122.96,250.36,128.49z"/>
	<path class="st7" d="M250.36,128.49v114.76c0,5.53-4.48,10-10,10h-40.95c-5.52,0-10-4.47-10-10V128.49c0-5.53,4.48-10,10-10h40.95
		C245.88,118.49,250.36,122.96,250.36,128.49z"/>
	<rect x="175.66" y="141.37" class="st4" width="74.7" height="89"/>
	<rect x="189.41" y="141.37" class="st5" width="60.95" height="89"/>
	<path class="st0" d="M242.14,156.04v18c0,2.76-2.24,5-5,5h-48.25c-2.77,0-5-2.24-5-5v-18c0-2.76,2.23-5,5-5h48.25
		C239.9,151.04,242.14,153.28,242.14,156.04z"/>
	<path class="st1" d="M242.14,156.04v18c0,2.76-2.24,5-5,5h-47.73v-28h47.73C239.9,151.04,242.14,153.28,242.14,156.04z"/>
	<path class="st6" d="M212.01,192.04v23.66c0,2.76-2.24,5-5,5h-18.12c-2.77,0-5-2.24-5-5v-23.66c0-2.76,2.23-5,5-5h18.12
		C209.77,187.04,212.01,189.28,212.01,192.04z"/>
	<path class="st7" d="M212.01,192.04v23.66c0,2.76-2.24,5-5,5h-17.6v-33.66h17.6C209.77,187.04,212.01,189.28,212.01,192.04z"/>
	<path class="st7" d="M237.135,200.37h-11.792c-2.761,0-5-2.239-5-5v-3.333c0-2.761,2.239-5,5-5h11.792c2.761,0,5,2.239,5,5v3.333
		C242.135,198.131,239.896,200.37,237.135,200.37z"/>
	<path class="st7" d="M237.135,220.703h-11.792c-2.761,0-5-2.239-5-5v-3.333c0-2.761,2.239-5,5-5h11.792c2.761,0,5,2.239,5,5v3.333
		C242.135,218.465,239.896,220.703,237.135,220.703z"/>
	<circle class="st5" cx="200.524" cy="130.37" r="3.75"/>
	<path class="st4" d="M222.76,242.43c0,2.771-2.251,5-5,5h-9.5c-2.76,0-5-2.24-5-5c0-2.771,2.251-5,5-5h9.5
		C220.52,237.43,222.76,239.67,222.76,242.43z"/>
	<path class="st5" d="M222.76,242.43c0,2.771-2.251,5-5,5h-4.33c-2.76,0-5-2.24-5-5c0-2.749,2.242-5,5-5h4.33
		C220.52,237.43,222.76,239.67,222.76,242.43z"/>
	<circle class="st5" cx="138.784" cy="36.25" r="3.693"/>
	<circle class="st5" cx="152.3" cy="36.25" r="3.693"/>
	<path class="st8" d="M245.36,0.75H10.64c-3.86,0-7,3.14-7,7v152.9c0,3.86,3.14,7,7,7h101.53v61.93H69.33c-3.86,0-7,3.14-7,7v11.67
		c0,3.86,3.14,7,7,7c7.992,0,164.164,0,171.03,0c6.62,0,12-5.38,12-12v-12.88c0-3.182,0-215.416,0-222.62
		C252.36,3.89,249.22,0.75,245.36,0.75z M7.64,160.65V7.75c0-1.65,1.35-3,3-3h234.72c1.65,0,3,1.35,3,3v111.81
		c-2.771-2.497-5.598-3.07-9-3.07V20.75c0-3.86-3.14-7-7-7H23.64c-3.86,0-7,3.14-7,7v126.9c0,3.86,3.14,7,7,7h150.02v9
		c-5.852,0-154.188,0-163.02,0C8.99,163.65,7.64,162.3,7.64,160.65z M248.36,228.37h-70.7c0-10.184,0-74.961,0-85
		c7.589,0,61.809,0,70.7,0C248.36,152.59,248.36,219.459,248.36,228.37z M143.83,229.58v-61.93h29.83v61.93H143.83z M235.36,116.49
		h-49.7c-6.62,0-12,5.38-12,12c0,5.309,0,10.687,0,22.16H23.64c-1.65,0-3-1.35-3-3V20.75c0-1.65,1.35-3,3-3h208.72
		c1.65,0,3,1.35,3,3V116.49z M177.66,139.37v-10.88c0-4.41,3.59-8,8-8c6.481,0,47.948,0,54.7,0c4.41,0,8,3.59,8,8v10.88
		C239.47,139.37,185.249,139.37,177.66,139.37z M116.17,167.65c10.121,0,13.534,0,23.66,0v61.93h-23.66V167.65z M69.33,251.25
		c-1.65,0-3-1.35-3-3v-11.67c0-1.66,1.35-3,3-3c15.071,0,89.268,0,104.33,0v9.67c0,3.07,1.16,5.88,3.07,8H69.33z M240.36,251.25
		c-7.428,0-49.328,0-54.7,0c-4.41,0-8-3.59-8-8c0-8.734,0-6.981,0-10.88c7.111,0,63.559,0,70.7,0v10.88
		C248.36,247.66,244.77,251.25,240.36,251.25z"/>
	<path class="st8" d="M158.5,24.67c-14.478,0-119.304,0-122.26,0c-3.86,0-7,3.14-7,7v105.06c0,3.86,3.14,7,7,7H158.5
		c3.86,0,7-3.14,7-7V45.5V31.67C165.5,27.81,162.36,24.67,158.5,24.67z M158.5,28.67c1.65,0,3,1.34,3,3V43.5H83.57
		c-0.91,0-1.76-0.4-2.33-1.11L70.19,28.67H158.5z M161.5,136.73c0,1.65-1.35,3-3,3H36.24c-1.66,0-3-1.35-3-3V31.67
		c0-1.66,1.34-3,3-3h28.82l13.06,16.22c1.33,1.66,3.32,2.61,5.45,2.61h77.93V136.73z"/>
	<path class="st8" d="M41.66,65.67v16.94c0,3.86,3.14,7,7,7h95.88c3.86,0,7-3.14,7-7V65.67c0-3.86-3.14-7-7-7H48.66
		C44.8,58.67,41.66,61.81,41.66,65.67z M147.54,65.67v16.94c0,1.65-1.35,3-3,3H48.66c-1.66,0-3-1.35-3-3V65.67c0-1.65,1.34-3,3-3
		h95.88C146.19,62.67,147.54,64.02,147.54,65.67z"/>
	<path class="st8" d="M88.03,93.29H48.66c-3.86,0-7,3.15-7,7V123c0,3.86,3.14,7,7,7h39.37c3.86,0,7-3.14,7-7v-22.71
		C95.03,96.44,91.89,93.29,88.03,93.29z M91.03,123c0,1.65-1.34,3-3,3H48.66c-1.66,0-3-1.35-3-3v-22.71c0-1.65,1.34-3,3-3h39.37
		c1.66,0,3,1.35,3,3V123z"/>
	<path class="st8" d="M144.54,93.29h-37.13c-3.86,0-7,3.15-7,7v2.23c0,3.86,3.14,7,7,7h37.13c3.86,0,7-3.14,7-7v-2.23
		C151.54,96.44,148.4,93.29,144.54,93.29z M147.54,102.52c0,1.65-1.35,3-3,3h-37.13c-1.66,0-3-1.35-3-3v-2.23c0-1.65,1.34-3,3-3
		h37.13c1.65,0,3,1.35,3,3V102.52z"/>
	<path class="st8" d="M144.54,113.78h-37.13c-3.86,0-7,3.14-7,7V123c0,3.86,3.14,7,7,7h37.13c3.86,0,7-3.14,7-7v-2.22
		C151.54,116.92,148.4,113.78,144.54,113.78z M147.54,123c0,1.65-1.35,3-3,3h-37.13c-1.66,0-3-1.35-3-3v-2.22c0-1.66,1.34-3,3-3
		h37.13c1.65,0,3,1.34,3,3V123z"/>
	<path class="st8" d="M43.658,40.5h18.497c1.104,0,2-0.896,2-2s-0.896-2-2-2H43.658c-1.104,0-2,0.896-2,2S42.553,40.5,43.658,40.5z"
		/>
	<path class="st8" d="M237.14,149.04c-5.082,0-43.07,0-48.25,0c-3.873,0-7,3.15-7,7c0,15.116,0,11.267,0,18c0,3.86,3.14,7,7,7h48.25
		c3.86,0,7-3.14,7-7c0-6.729,0-2.875,0-18C244.14,152.231,241.051,149.04,237.14,149.04z M240.14,174.04c0,1.65-1.35,3-3,3h-48.25
		c-1.66,0-3-1.35-3-3c0-6.729,0-2.875,0-18c0-1.659,1.335-3,3-3c7.452,0,40.883,0,48.25,0c1.65,0,3,1.34,3,3
		C240.14,158.032,240.14,172.067,240.14,174.04z"/>
	<path class="st8" d="M207.01,185.04h-18.12c-3.86,0-7,3.14-7,7v23.66c0,3.86,3.14,7,7,7h18.12c3.86,0,7-3.14,7-7v-23.66
		C214.01,188.18,210.87,185.04,207.01,185.04z M210.01,215.7c0,1.66-1.35,3-3,3h-18.12c-1.66,0-3-1.34-3-3v-23.66c0-1.66,1.34-3,3-3
		h18.12c1.65,0,3,1.34,3,3V215.7z"/>
	<path class="st8" d="M237.14,185.04h-11.8c-3.86,0-7,3.14-7,7v3.33c0,3.86,3.14,7,7,7h11.8c3.86,0,7-3.14,7-7v-3.33
		C244.14,188.18,241,185.04,237.14,185.04z M240.14,195.37c0,1.65-1.35,3-3,3h-11.8c-1.65,0-3-1.35-3-3v-3.33c0-1.66,1.35-3,3-3
		h11.8c1.65,0,3,1.34,3,3V195.37z"/>
	<path class="st8" d="M237.14,205.37h-11.8c-3.86,0-7,3.14-7,7v3.33c0,3.86,3.14,7,7,7h11.8c3.86,0,7-3.14,7-7v-3.33
		C244.14,208.51,241,205.37,237.14,205.37z M240.14,215.7c0,1.66-1.35,3-3,3h-11.8c-1.65,0-3-1.34-3-3v-3.33c0-1.65,1.35-3,3-3h11.8
		c1.65,0,3,1.35,3,3V215.7z"/>
	<path class="st8" d="M229.246,128.37h-17.667c-1.104,0-2,0.896-2,2s0.896,2,2,2h17.667c1.104,0,2-0.896,2-2
		S230.351,128.37,229.246,128.37z"/>
	<path class="st8" d="M200.52,124.62c-3.17,0-5.75,2.58-5.75,5.75c0,3.17,2.58,5.75,5.75,5.75c3.17,0,5.75-2.58,5.75-5.75
		C206.27,127.2,203.69,124.62,200.52,124.62z M200.52,132.12c-0.96,0-1.75-0.79-1.75-1.75c0-0.96,0.79-1.75,1.75-1.75
		c0.97,0,1.75,0.79,1.75,1.75C202.27,131.33,201.49,132.12,200.52,132.12z"/>
	<path class="st8" d="M217.76,235.43h-9.5c-3.86,0-7,3.14-7,7c0,3.86,3.14,7,7,7h9.5c3.86,0,7-3.14,7-7
		C224.76,238.57,221.62,235.43,217.76,235.43z M217.76,245.43h-9.5c-1.65,0-3-1.34-3-3c0-1.65,1.35-3,3-3h9.5c1.65,0,3,1.35,3,3
		C220.76,244.09,219.41,245.43,217.76,245.43z"/>
	<path class="st8" d="M223.591,87.038l-6.405,6.404V71.203c0-6.194-5.039-11.233-11.233-11.233h-20.875l6.405-6.405
		c0.781-0.781,0.781-2.047,0-2.828c-0.781-0.781-2.048-0.781-2.828,0l-9.818,9.818c-0.783,0.78-0.777,2.057,0,2.831l9.818,9.818
		c0.39,0.391,0.902,0.586,1.414,0.586s1.024-0.195,1.414-0.586c0.781-0.781,0.781-2.047,0-2.828l-6.404-6.405h20.875
		c3.988,0,7.233,3.245,7.233,7.233v22.239l-6.405-6.404c-0.78-0.781-2.048-0.781-2.828,0c-0.781,0.781-0.781,2.047,0,2.828
		l9.818,9.818c0.769,0.77,2.036,0.796,2.831,0l9.818-9.818c0.781-0.781,0.781-2.047,0-2.828
		C225.639,86.256,224.372,86.256,223.591,87.038z"/>
	<path class="st8" d="M138.78,41.94c3.14,0,5.7-2.55,5.7-5.69s-2.56-5.69-5.7-5.69c-3.14,0-5.69,2.55-5.69,5.69
		S135.64,41.94,138.78,41.94z M138.78,34.56c0.94,0,1.7,0.76,1.7,1.69s-0.76,1.69-1.7,1.69c-0.93,0-1.69-0.76-1.69-1.69
		S137.85,34.56,138.78,34.56z"/>
	<path class="st8" d="M152.3,41.94c3.14,0,5.69-2.55,5.69-5.69s-2.55-5.69-5.69-5.69s-5.69,2.55-5.69,5.69S149.16,41.94,152.3,41.94
		z M152.3,34.56c0.93,0,1.69,0.76,1.69,1.69s-0.76,1.69-1.69,1.69s-1.69-0.76-1.69-1.69S151.37,34.56,152.3,34.56z"/>
</g>
</svg>
